<svg width="70" height="70" viewBox="0 0 70 70" fill="none" xmlns="http://www.w3.org/2000/svg">
<path d="M35 5.83331C23.3333 17.5 8.74999 25.9583 8.74999 38.5C8.72808 41.0769 9.46525 43.6032 10.8696 45.764C12.2739 47.9247 14.2832 49.6242 16.647 50.6506C19.0108 51.677 21.6244 51.9848 24.162 51.5357C26.6996 51.0866 29.0488 49.9003 30.9167 48.125L26.25 64.1667H43.75L39.0833 48.125C40.9512 49.9003 43.3004 51.0866 45.838 51.5357C48.3755 51.9848 50.9892 51.677 53.353 50.6506C55.7167 49.6242 57.7261 47.9247 59.1304 45.764C60.5347 43.6032 61.2719 41.0769 61.25 38.5C61.25 25.9583 46.6667 17.5 35 5.83331Z" fill="#173D30"/>
</svg>
