<svg width="32" height="32" viewBox="0 0 32 32" fill="none" xmlns="http://www.w3.org/2000/svg">
<path d="M16 2.66669C10.6666 8.00002 3.99997 11.8667 3.99997 17.6C3.98996 18.778 4.32695 19.9329 4.96893 20.9207C5.61091 21.9085 6.52946 22.6854 7.61005 23.1546C8.69063 23.6238 9.88544 23.7645 11.0455 23.5592C12.2055 23.3539 13.2794 22.8116 14.1333 22L12 29.3334H20L17.8666 22C18.7205 22.8116 19.7945 23.3539 20.9545 23.5592C22.1145 23.7645 23.3093 23.6238 24.3899 23.1546C25.4705 22.6854 26.389 21.9085 27.031 20.9207C27.673 19.9329 28.01 18.778 28 17.6C28 11.8667 21.3333 8.00002 16 2.66669Z" fill="#173D30"/>
</svg>
